PathFileType   4   (X/Y/Z)
DataRate	CameraRate	NumFrames	NumMarkers	Units	OrigDataRate	OrigDataStartFrame	OrigNumFrames
120.0	120.0	10	37	mm	120.0	146	194
Frame#	Time	midhip	hip_r	hip_l	knee_r	knee_l	ankle_r	ankle_l	midasis	asis_r	asis_l	psis_r	psis_l	epicondLat_r	epicondLat_l	epicondMed_r	epicondMed_l	malleolusLat_r	malleolusLat_l	malleolusMedv_r	malleolusMedv_l	neck	subclavicle_r	subclavicle_l	sternalnotch	xyphoidprocess	thighwand_r	thighwand_l	upperleg1_r	upperleg1_l	upperleg2_r	upperleg2_l	shankwand_r	shankwand_l	lowerleg1_r	lowerleg1_l	toe_r	toe_l
 	 	X1	Y1	Z1	X2	Y2	Z2	X3	Y3	Z3	X4	Y4	Z4	X5	Y5	Z5	X6	Y6	Z6	X7	Y7	Z7	X8	Y8	Z8	X9	Y9	Z9	X10	Y10	Z10	X11	Y11	Z11	X12	Y12	Z12	X13	Y13	Z13	X14	Y14	Z14	X15	Y15	Z15	X16	Y16	Z16	X17	Y17	Z17	X18	Y18	Z18	X19	Y19	Z19	X20	Y20	Z20	X21	Y21	Z21	X22	Y22	Z22	X23	Y23	Z23	X24	Y24	Z24	X25	Y25	Z25	X26	Y26	Z26	X27	Y27	Z27	X28	Y28	Z28	X29	Y29	Z29	X30	Y30	Z30	X31	Y31	Z31	X32	Y32	Z32	X33	Y33	Z33	X34	Y34	Z34	X35	Y35	Z35	X36	Y36	Z36	X37	Y37	Z37

	146	1.55833	1353.764	687.224	-238.462	1342.927	695.484	-174.226	1348.771	692.758	-299.890	1459.210	394.134	-170.795	1333.412	382.713	-264.220	1365.587	83.534	-147.548	1311.526	60.428	-251.001	1408.726	760.407	-235.572	1404.297	762.473	-140.336	1413.155	758.341	-330.808	1260.826	791.981	-220.778	1263.003	788.352	-275.392	1458.544	394.452	-120.300	1332.330	377.053	-313.887	1472.297	382.974	-215.403	1326.782	385.796	-209.799	1356.640	88.616	-115.667	1308.623	59.216	-285.357	1372.855	87.971	-173.801	1305.386	63.766	-222.748	1310.830	1145.931	-232.742	1385.649	1090.326	-170.780	1384.390	1096.787	-300.621	1378.437	1082.804	-238.725	1384.550	939.096	-245.208	1428.512	472.444	-41.306	1469.049	472.652	-309.624	1442.876	541.481	-106.818	1405.182	539.298	-260.391	1482.743	467.994	-118.694	1384.439	454.819	-243.929	1365.124	196.178	-52.107	1404.731	151.764	-286.862	1399.454	239.379	-112.319	1344.015	211.083	-272.908	1450.548	49.824	-120.035	1403.930	39.047	-256.744
	147	1.56667	1357.460	686.950	-238.475	1346.588	695.274	-174.245	1352.451	692.454	-299.906	1465.302	394.665	-170.788	1334.871	382.585	-264.376	1381.805	80.680	-146.756	1311.618	60.420	-251.014	1412.375	760.171	-235.631	1407.933	762.308	-140.407	1416.818	758.034	-330.854	1264.487	791.677	-220.888	1266.646	788.069	-275.484	1464.350	394.870	-120.298	1333.833	376.949	-314.046	1477.769	383.624	-215.499	1328.171	385.718	-209.895	1372.639	85.555	-114.905	1308.716	59.205	-285.370	1389.860	85.463	-173.011	1305.330	63.843	-222.769	1314.160	1145.619	-232.222	1388.809	1089.793	-170.168	1387.878	1096.581	-300.002	1381.765	1082.523	-238.110	1387.796	938.751	-244.981	1433.183	472.645	-41.263	1471.243	471.774	-309.547	1448.042	541.571	-106.643	1407.803	538.708	-260.381	1487.666	468.634	-118.467	1386.370	454.237	-243.926	1377.457	193.590	-51.595	1405.255	151.310	-286.912	1410.201	237.764	-111.844	1347.729	211.990	-274.360	1467.816	49.958	-119.508	1404.085	38.975	-256.725
	148	1.57500	1361.163	686.652	-238.492	1350.270	695.033	-174.263	1356.123	692.129	-299.922	1471.189	395.091	-170.739	1336.343	382.458	-264.527	1397.930	78.091	-146.009	1311.717	60.416	-251.028	1416.033	759.907	-235.699	1411.599	762.108	-140.484	1420.468	757.706	-330.913	1268.160	791.349	-220.960	1270.283	787.765	-275.537	1470.003	395.205	-120.253	1335.336	376.845	-314.201	1482.336	384.134	-215.688	1329.828	385.468	-210.138	1388.592	82.732	-114.173	1308.811	59.198	-285.384	1405.908	83.213	-172.309	1305.485	63.893	-222.781	1317.540	1145.311	-231.640	1391.994	1089.281	-169.482	1391.404	1096.395	-299.334	1385.084	1082.198	-237.478	1391.083	938.428	-244.692	1437.825	472.843	-41.184	1473.434	470.896	-309.504	1453.666	541.843	-106.640	1410.344	538.097	-260.392	1492.455	469.099	-118.396	1388.429	453.685	-244.031	1389.823	191.090	-51.054	1405.771	150.848	-286.973	1420.984	236.227	-111.399	1348.595	211.871	-274.446	1484.929	50.270	-119.175	1404.244	38.902	-256.717
	149	1.58333	1364.876	686.332	-238.506	1353.973	694.764	-174.274	1359.790	691.784	-299.933	1476.872	395.413	-170.652	1337.833	382.329	-264.672	1413.914	75.781	-145.308	1311.821	60.415	-251.043	1419.699	759.619	-235.769	1415.292	761.876	-140.560	1424.107	757.361	-330.977	1271.840	790.997	-220.996	1273.916	787.440	-275.551	1475.503	395.462	-120.170	1336.842	376.739	-314.349	1487.080	384.331	-215.519	1331.428	385.376	-210.486	1404.451	80.169	-113.473	1308.904	59.196	-285.398	1421.872	81.362	-171.995	1305.756	63.898	-222.798	1320.947	1144.983	-230.979	1395.094	1088.846	-168.771	1394.795	1096.239	-298.626	1388.417	1081.852	-236.829	1394.224	938.155	-244.313	1442.448	473.038	-41.072	1475.625	470.018	-309.501	1458.154	542.172	-106.691	1412.904	537.546	-260.452	1497.075	469.425	-118.348	1390.489	453.319	-244.226	1402.193	188.707	-50.487	1406.275	150.380	-287.045	1431.705	234.782	-110.956	1346.480	210.678	-273.032	1501.855	50.780	-119.015	1404.398	38.829	-256.724
	150	1.59167	1368.602	685.991	-238.510	1357.697	694.466	-174.274	1363.457	691.422	-299.934	1482.354	395.635	-170.532	1339.347	382.196	-264.806	1429.715	73.758	-144.655	1311.933	60.415	-251.058	1423.373	759.310	-235.833	1419.009	761.616	-140.626	1427.738	757.004	-331.039	1275.526	790.617	-220.992	1277.547	787.094	-275.527	1480.856	395.642	-120.054	1338.352	376.630	-314.485	1492.361	384.371	-214.971	1332.900	385.313	-210.732	1420.176	77.878	-112.807	1308.997	59.197	-285.411	1437.428	79.824	-171.568	1305.699	63.976	-222.815	1324.289	1144.594	-230.372	1398.382	1088.404	-168.141	1398.135	1095.939	-297.941	1391.736	1081.469	-236.158	1397.540	937.796	-243.829	1447.055	473.225	-40.934	1477.817	469.143	-309.536	1461.941	542.408	-106.667	1415.485	536.996	-260.536	1501.643	469.797	-118.116	1392.450	452.818	-244.358	1414.536	186.463	-49.898	1406.765	149.908	-287.127	1442.218	233.493	-110.503	1350.101	211.548	-274.616	1518.563	51.513	-119.004	1404.544	38.759	-256.746
	151	1.60000	1372.338	685.628	-238.497	1361.440	694.140	-174.255	1367.124	691.044	-299.918	1487.642	395.762	-170.386	1340.887	382.058	-264.926	1445.307	72.026	-144.049	1312.051	60.415	-251.072	1427.054	758.983	-235.882	1422.748	761.328	-140.677	1431.361	756.637	-331.088	1279.213	790.208	-220.948	1281.178	786.726	-275.463	1486.066	395.750	-119.910	1339.871	376.518	-314.608	1497.384	384.410	-214.424	1334.483	385.164	-210.940	1435.736	75.871	-112.177	1309.089	59.201	-285.423	1452.590	78.509	-170.805	1305.658	64.056	-222.815	1327.638	1144.152	-229.732	1401.878	1087.862	-167.436	1401.563	1095.633	-297.175	1394.971	1081.000	-235.437	1401.146	937.392	-243.377	1451.652	473.396	-40.777	1480.014	468.273	-309.607	1465.780	542.562	-106.571	1417.997	536.425	-260.528	1506.091	470.175	-117.846	1394.446	452.340	-244.456	1426.820	184.379	-49.293	1407.242	149.433	-287.217	1452.598	232.306	-110.028	1350.597	211.322	-274.569	1535.022	52.485	-119.121	1404.677	38.693	-256.782
	152	1.60833	1376.082	685.244	-238.462	1365.204	693.784	-174.214	1370.793	690.652	-299.879	1492.748	395.799	-170.222	1342.459	381.915	-265.028	1460.672	70.584	-143.487	1312.176	60.417	-251.085	1430.742	758.638	-235.912	1426.507	761.011	-140.706	1434.976	756.265	-331.117	1282.901	789.771	-220.861	1284.809	786.335	-275.360	1491.141	395.787	-119.748	1341.404	376.403	-314.712	1501.848	384.411	-214.150	1336.323	384.985	-211.163	1451.106	74.151	-111.581	1309.181	59.209	-285.434	1467.254	77.323	-170.069	1305.759	64.077	-222.809	1331.082	1143.700	-229.002	1405.130	1087.328	-166.677	1405.069	1095.405	-296.477	1398.232	1080.509	-234.720	1404.566	937.037	-243.008	1456.241	473.541	-40.609	1482.220	467.410	-309.709	1469.710	542.637	-106.500	1420.516	535.845	-260.490	1510.430	470.384	-117.783	1396.622	452.025	-244.593	1439.015	182.471	-48.677	1407.711	148.959	-287.314	1462.867	231.133	-109.548	1347.903	209.785	-272.982	1551.204	53.708	-119.348	1404.796	38.631	-256.830
	153	1.61667	1379.830	684.839	-238.399	1368.989	693.400	-174.145	1374.464	690.248	-299.815	1497.687	395.753	-170.049	1344.065	381.768	-265.110	1475.795	69.428	-142.963	1312.309	60.419	-251.097	1434.435	758.277	-235.915	1430.287	760.665	-140.709	1438.582	755.889	-331.120	1286.588	789.307	-220.729	1288.441	785.921	-275.215	1496.089	395.757	-119.574	1342.955	376.287	-314.797	1506.016	384.332	-214.103	1338.239	384.791	-211.330	1466.267	72.719	-111.015	1309.274	59.222	-285.442	1481.776	76.392	-169.584	1305.798	64.091	-222.827	1334.510	1143.250	-228.329	1408.354	1086.808	-166.005	1407.973	1094.604	-295.733	1401.453	1079.945	-233.979	1406.972	936.356	-241.968	1460.815	473.647	-40.440	1484.440	466.558	-309.834	1473.842	542.642	-106.576	1423.202	535.222	-260.573	1514.760	470.495	-117.926	1398.880	451.557	-244.745	1451.097	180.750	-48.054	1408.178	148.489	-287.416	1472.996	230.076	-109.111	1349.385	209.863	-273.401	1567.080	55.183	-119.668	1404.901	38.572	-256.886
	154	1.62500	1383.580	684.417	-238.307	1372.794	692.986	-174.046	1378.133	689.833	-299.722	1502.476	395.635	-169.876	1345.706	381.618	-265.170	1490.663	68.550	-142.469	1312.447	60.426	-251.108	1438.133	757.901	-235.889	1434.088	760.288	-140.685	1442.178	755.513	-331.094	1290.275	788.817	-220.548	1292.074	785.482	-275.026	1500.918	395.663	-119.400	1344.527	376.172	-314.858	1510.004	384.152	-214.096	1339.988	384.811	-211.517	1481.200	71.572	-110.476	1309.366	59.241	-285.450	1496.677	75.853	-169.231	1305.842	64.096	-222.863	1337.901	1142.760	-227.712	1411.797	1086.259	-165.407	1409.810	1092.864	-294.564	1404.745	1079.399	-233.267	1407.930	935.138	-239.665	1465.368	473.703	-40.282	1486.676	465.720	-309.978	1477.865	542.539	-106.692	1426.128	534.665	-260.678	1518.979	470.549	-118.140	1401.118	451.071	-244.901	1463.040	179.225	-47.428	1408.646	148.026	-287.527	1482.925	229.195	-108.678	1350.502	209.872	-273.641	1582.617	56.898	-120.068	1404.992	38.517	-256.948
	155	1.63333	1387.330	683.980	-238.189	1376.622	692.542	-173.916	1381.802	689.411	-299.600	1507.136	395.452	-169.710	1347.382	381.471	-265.206	1505.256	67.941	-141.999	1312.589	60.438	-251.120	1441.837	757.510	-235.835	1437.914	759.882	-140.632	1445.760	755.139	-331.037	1293.965	788.305	-220.316	1295.708	785.019	-274.792	1505.635	395.508	-119.232	1346.120	376.062	-314.897	1513.973	384.024	-214.173	1341.836	384.796	-211.580	1495.880	70.706	-109.957	1309.455	59.271	-285.458	1511.199	75.511	-168.835	1305.908	64.107	-222.891	1341.392	1142.204	-226.987	1415.340	1085.697	-164.772	1414.400	1093.435	-294.243	1408.038	1078.836	-232.562	1413.363	935.215	-240.549	1469.883	473.698	-40.143	1488.931	464.899	-310.134	1481.714	542.427	-106.722	1428.980	534.090	-260.630	1523.177	470.513	-118.379	1403.394	450.676	-244.956	1474.823	177.901	-46.804	1409.117	147.574	-287.651	1492.632	228.370	-108.281	1351.349	209.787	-273.703	1597.780	58.833	-120.532	1405.072	38.462	-257.014
